<svg width="189" height="45" viewBox="0 0 189 45" fill="none" xmlns="http://www.w3.org/2000/svg">
<path d="M1.17188 0.322266H11.3086V5.71289H1.17188V0.322266ZM1.17188 36.0938H27.3926V37.7051H1.17188V36.0938ZM1.17188 39.8438H27.3926V41.25H1.17188V39.8438ZM1.17188 5.91797H11.3086V9.25781H1.17188V5.91797ZM1.17188 9.69727H11.3086V12.8027H1.17188V9.69727ZM27.4219 44.7949H1.17188V43.623H27.4219V44.7949ZM1.17188 13.4766H11.3086V16.377H1.17188V13.4766ZM1.17188 17.2266H11.3086V19.9219H1.17188V17.2266ZM1.17188 21.0059H11.3086V23.4668H1.17188V21.0059ZM1.17188 24.7852H11.3086V27.041H1.17188V24.7852ZM1.17188 28.5352H11.3086V30.5859H1.17188V28.5352ZM1.17188 32.3145H11.3086V34.1309H1.17188V32.3145ZM42.9445 5.71289C44.1164 2.1582 47.0852 0.361328 51.8508 0.322266H61.2551C66.0012 0.361328 68.9699 2.1582 70.1613 5.71289H42.9445ZM42.3586 9.25781C42.3977 8.00781 42.5734 6.89453 42.8859 5.91797H70.2199C70.5129 6.91406 70.6789 8.02734 70.718 9.25781H42.3586ZM60.4934 12.7734C60.5324 11.3281 59.8098 10.6055 58.3254 10.6055H54.8098C53.3254 10.6055 52.6027 11.3281 52.6418 12.7734V12.8027H42.3586V9.84375V9.69727H70.7473V9.84375V12.8027H60.4934V12.7734ZM70.7473 36.1523C70.7473 36.6992 70.718 37.2168 70.6594 37.7051H42.4172C42.3781 37.2168 42.3586 36.6992 42.3586 36.1523V36.0938H70.7473V36.1523ZM70.2785 39.8438C70.1418 40.3516 69.9758 40.8203 69.7805 41.25H43.3254C43.1105 40.8203 42.9348 40.3516 42.798 39.8438H70.2785ZM42.3586 13.4766H52.6418V16.377H42.3586V13.4766ZM60.4934 13.4766H70.7473V16.377H60.4934V13.4766ZM42.3586 17.2266H52.6418V19.9219H42.3586V17.2266ZM60.4934 17.2266H70.7473V19.9219H60.4934V17.2266ZM42.3586 21.0059H52.6418V23.4668H42.3586V21.0059ZM60.4934 21.0059H70.7473V23.4668H60.4934V21.0059ZM67.9641 43.623C67.4172 44.0918 66.7922 44.4824 66.0891 44.7949H47.0168C46.2941 44.4824 45.6594 44.0918 45.1125 43.623H67.9641ZM42.3586 24.7852H52.6418V27.041H42.3586V24.7852ZM60.4934 24.7852H70.7473V27.041H60.4934V24.7852ZM42.3586 28.5352H52.6418V30.5859H42.3586V28.5352ZM60.4934 28.5352H70.7473V30.5859H60.4934V28.5352ZM52.6418 33.252C52.6223 33.584 52.6516 33.877 52.7297 34.1309H42.3586V32.3145H52.6418V33.252ZM60.4055 34.1309C60.4641 33.877 60.4934 33.584 60.4934 33.252V32.3145H70.7473V34.1309H60.4055ZM86.2992 5.71289C87.4711 2.1582 90.4398 0.361328 95.2055 0.322266H104.903C109.629 0.361328 112.588 2.1582 113.78 5.71289H86.2992ZM85.7133 9.25781C85.7523 8.00781 85.9281 6.89453 86.2406 5.91797H113.838C114.151 6.91406 114.336 8.02734 114.395 9.25781H85.7133ZM85.7133 9.84375V9.69727H114.395V12.8027H104.141V12.4512C104.102 11.2207 103.379 10.6055 101.973 10.6055H98.1645C96.6801 10.6055 95.9574 11.3281 95.9965 12.7734V12.8027H85.7133V9.84375ZM114.395 36.1523C114.395 36.6992 114.366 37.2168 114.307 37.7051H85.7719C85.7328 37.2168 85.7133 36.6992 85.7133 36.1523V36.0938H114.395V36.1523ZM98.4281 21.0059H114.395V23.4668H98.4281V21.0059ZM113.926 39.8438C113.789 40.3516 113.623 40.8203 113.428 41.25H86.6801C86.4652 40.8203 86.2895 40.3516 86.1527 39.8438H113.926ZM98.4281 24.7852H114.395V27.041H98.4281V24.7852ZM85.7133 13.4766H95.9965V16.377H85.7133V13.4766ZM85.7133 17.2266H95.9965V19.9219H85.7133V17.2266ZM85.7133 21.0059H95.9965V23.4668H85.7133V21.0059ZM111.612 43.623C111.065 44.0918 110.44 44.4824 109.737 44.7949H90.3715C89.6488 44.4824 89.0141 44.0918 88.4672 43.623H111.612ZM85.7133 24.7852H95.9965V27.041H85.7133V24.7852ZM85.7133 28.5352H95.9965V30.5859H85.7133V28.5352ZM104.141 28.5352H114.395V30.5859H104.141V28.5352ZM104.141 15.498V13.4766H114.395V15.498H104.141ZM95.9965 33.252C95.977 33.584 96.0062 33.877 96.0844 34.1309H85.7133V32.3145H95.9965V33.252ZM104.053 34.1309C104.092 33.9746 104.121 33.7891 104.141 33.5742V32.3145H114.395V34.1309H104.053ZM129.361 0.322266H139.498V5.71289H129.361V0.322266ZM129.361 5.91797H139.498V9.25781H129.361V5.91797ZM129.361 9.69727H139.498V12.8027H129.361V9.69727ZM129.361 13.4766H139.498V16.377H129.361V13.4766ZM129.361 17.2266H139.498V19.9219H129.361V17.2266ZM129.361 21.0059H139.498V23.4668H129.361V21.0059ZM129.361 24.7852H139.498V27.041H129.361V24.7852ZM129.361 28.5352H139.498V30.5859H129.361V28.5352ZM129.361 32.3145H139.498V34.1309H129.361V32.3145ZM129.361 36.0938H139.498V37.7051H129.361V36.0938ZM129.361 39.8438H139.498V41.25H129.361V39.8438ZM129.361 43.623H139.498V44.7949H129.361V43.623ZM176.788 23.3789V21.0059H186.925V23.4668H165.391L164.571 21.8848V23.4668H154.434V21.0059H175.528L176.788 23.3789ZM167.53 5.71289H154.434V0.146484H164.63L167.53 5.71289ZM176.788 0.146484H186.925V5.71289H176.788V0.146484ZM154.434 17.2266H173.565L174.971 19.9219H154.434V17.2266ZM154.434 13.4766H171.602L173.126 16.377H154.434V13.4766ZM154.434 9.69727H169.61L171.251 12.8027H154.434V9.69727ZM154.434 5.91797H167.647L169.376 9.25781H154.434V5.91797ZM166.095 24.7852H186.925V27.041H167.266L166.095 24.7852ZM168.057 28.5352H186.925V30.5859H169.112L168.057 28.5352ZM176.788 5.91797H186.925V9.25781H176.788V5.91797ZM176.788 9.69727H186.925V12.8027H176.788V9.69727ZM170.02 32.3145H186.925V34.1309H170.987L170.02 32.3145ZM176.788 13.4766H186.925V16.377H176.788V13.4766ZM176.788 17.2266H186.925V19.9219H176.788V17.2266ZM172.012 36.0938H186.925V37.7051H172.862L172.012 36.0938ZM154.434 24.7852H164.571V27.041H154.434V24.7852ZM154.434 28.5352H164.571V30.5859H154.434V28.5352ZM154.434 32.3145H164.571V34.1309H154.434V32.3145ZM173.975 39.8438H186.925V41.25H174.708L173.975 39.8438ZM154.434 36.0938H164.571V37.7051H154.434V36.0938ZM154.434 39.8438H164.571V41.25H154.434V39.8438ZM175.938 43.623H186.925V44.7949H176.554L175.938 43.623ZM154.434 43.623H164.571V44.7949H154.434V43.623Z" fill="white"/>
</svg>
