<svg width="20" height="20" viewBox="0 0 16 18" fill="none" xmlns="http://www.w3.org/2000/svg">
<mask id="path-1-inside-1_1_316" fill="white">
<path d="M2 16H5V10H11V16H14V7L8 2.5L2 7V16ZM2 18C1.45 18 0.979333 17.8043 0.588 17.413C0.196 17.021 0 16.55 0 16V7C0 6.68333 0.0709998 6.38333 0.213 6.1C0.354333 5.81667 0.55 5.58333 0.8 5.4L6.8 0.9C6.98333 0.766667 7.175 0.666667 7.375 0.6C7.575 0.533333 7.78333 0.5 8 0.5C8.21667 0.5 8.425 0.533333 8.625 0.6C8.825 0.666667 9.01667 0.766667 9.2 0.9L15.2 5.4C15.45 5.58333 15.646 5.81667 15.788 6.1C15.9293 6.38333 16 6.68333 16 7V16C16 16.55 15.8043 17.021 15.413 17.413C15.021 17.8043 14.55 18 14 18H9V12H7V18H2Z"/>
</mask>
<path d="M2 16H-2V20H2V16ZM5 16V20H9V16H5ZM5 10V6H1V10H5ZM11 10H15V6H11V10ZM11 16H7V20H11V16ZM14 16V20H18V16H14ZM14 7H18V5L16.4 3.8L14 7ZM8 2.5L10.4 -0.7L8 -2.5L5.6 -0.7L8 2.5ZM2 7L-0.4 3.8L-2 5V7H2ZM0.213 6.1L3.78903 7.89222L3.79239 7.88549L0.213 6.1ZM0.8 5.4L3.16545 8.62562L3.1828 8.6129L3.2 8.6L0.8 5.4ZM6.8 0.9L4.44731 -2.33494L4.42353 -2.31765L4.4 -2.3L6.8 0.9ZM9.2 0.9L11.6 -2.3L11.5765 -2.31765L11.5527 -2.33494L9.2 0.9ZM15.2 5.4L12.8 8.6L12.8172 8.6129L12.8345 8.62562L15.2 5.4ZM15.788 6.1L19.3674 4.31451L19.364 4.30778L15.788 6.1ZM15.413 17.413L18.239 20.2438L18.2438 20.239L15.413 17.413ZM9 18H5V22H9V18ZM9 12H13V8H9V12ZM7 12V8H3V12H7ZM7 18V22H11V18H7ZM2 20H5V12H2V20ZM9 16V10H1V16H9ZM5 14H11V6H5V14ZM7 10V16H15V10H7ZM11 20H14V12H11V20ZM18 16V7H10V16H18ZM16.4 3.8L10.4 -0.7L5.6 5.7L11.6 10.2L16.4 3.8ZM5.6 -0.7L-0.4 3.8L4.4 10.2L10.4 5.7L5.6 -0.7ZM-2 7V16H6V7H-2ZM2 14C2.20998 14 2.48131 14.0397 2.76999 14.1597C3.05818 14.2795 3.27386 14.442 3.41643 14.5846L-2.24043 20.2414C-1.10421 21.3776 0.381716 22 2 22V14ZM3.41643 14.5846C3.55802 14.7262 3.72021 14.9411 3.84 15.229C3.96006 15.5175 4 15.7891 4 16H-4C-4 17.6203 -3.37587 19.106 -2.24043 20.2414L3.41643 14.5846ZM4 16V7H-4V16H4ZM4 7C4 7.30611 3.92559 7.61973 3.78902 7.89222L-3.36302 4.30778C-3.78359 5.14694 -4 6.06055 -4 7H4ZM3.79239 7.88549C3.65577 8.15937 3.44021 8.42413 3.16545 8.62562L-1.56545 2.17438C-2.34021 2.74254 -2.94711 3.47397 -3.36639 4.31452L3.79239 7.88549ZM3.2 8.6L9.2 4.1L4.4 -2.3L-1.6 2.2L3.2 8.6ZM9.15269 4.13494C9.02923 4.22473 8.85728 4.32228 8.63991 4.39473L6.11009 -3.19473C5.49272 -2.98894 4.93744 -2.6914 4.44731 -2.33494L9.15269 4.13494ZM8.63991 4.39473C8.42074 4.46779 8.20118 4.5 8 4.5V-3.5C7.36548 -3.5 6.72926 -3.40112 6.11009 -3.19473L8.63991 4.39473ZM8 4.5C7.79882 4.5 7.57926 4.46779 7.36009 4.39473L9.88991 -3.19473C9.27074 -3.40112 8.63452 -3.5 8 -3.5V4.5ZM7.36009 4.39473C7.14272 4.32228 6.97077 4.22473 6.84731 4.13494L11.5527 -2.33494C11.0626 -2.6914 10.5073 -2.98894 9.88991 -3.19473L7.36009 4.39473ZM6.8 4.1L12.8 8.6L17.6 2.2L11.6 -2.3L6.8 4.1ZM12.8345 8.62562C12.5614 8.4253 12.3476 8.16279 12.212 7.89222L19.364 4.30778C18.9444 3.47055 18.3386 2.74136 17.5655 2.17438L12.8345 8.62562ZM12.2086 7.88549C12.0733 7.6142 12 7.30296 12 7H20C20 6.06371 19.7854 5.15247 19.3674 4.31452L12.2086 7.88549ZM12 7V16H20V7H12ZM12 16C12 15.79 12.0397 15.5191 12.1593 15.2312C12.2787 14.9438 12.4405 14.7289 12.5822 14.587L18.2438 20.239C19.3779 19.1031 20 17.6181 20 16H12ZM12.587 14.5822C12.7289 14.4405 12.9438 14.2787 13.2312 14.1593C13.5191 14.0397 13.79 14 14 14V22C15.6181 22 17.1031 21.3779 18.239 20.2438L12.587 14.5822ZM14 14H9V22H14V14ZM13 18V12H5V18H13ZM9 8H7V16H9V8ZM3 12V18H11V12H3ZM7 14H2V22H7V14Z" fill="white" mask="url(#path-1-inside-1_1_316)"/>
</svg>
