<svg width="18" height="18" viewBox="0 0 17 22" fill="none" xmlns="http://www.w3.org/2000/svg">
<path d="M1 4.93557V16.6003C1 18.2741 1 19.1109 1.25102 19.623C1.71629 20.5723 2.73594 21.1178 3.78384 20.9784C4.34921 20.9032 5.04556 20.439 6.43825 19.5105L6.44159 19.5083C6.99361 19.1403 7.26965 18.9562 7.55841 18.8542C8.08876 18.6667 8.66744 18.6667 9.1978 18.8542C9.48714 18.9564 9.76426 19.1412 10.3185 19.5107C11.7112 20.4391 12.4083 20.903 12.9737 20.9782C14.0216 21.1176 15.0412 20.5723 15.5065 19.623C15.7575 19.1109 15.7575 18.2739 15.7575 16.6003V4.93153C15.7575 3.55673 15.7575 2.8683 15.4897 2.34268C15.2539 1.87988 14.8766 1.50389 14.4138 1.26808C13.8877 1 13.1999 1 11.8224 1H4.93557C3.55807 1 2.86881 1 2.34268 1.26808C1.87988 1.50389 1.50389 1.87988 1.26808 2.34268C1 2.86881 1 3.55807 1 4.93557Z" stroke="#959595" stroke-width="2" stroke-linecap="round" stroke-linejoin="round"/>
</svg>
