<svg width="18" height="18" viewBox="0 0 22 22" fill="none" xmlns="http://www.w3.org/2000/svg">
<path d="M10.8324 1.83586C12.0142 1.83586 12.415 1.84463 12.7192 1.93097C13.5555 2.16839 14.2091 2.82298 14.4462 3.6605C14.5318 3.96294 14.5411 4.36085 14.5412 5.52519L14.5412 5.55C14.5563 6.04366 14.9611 6.43921 15.4578 6.43921C15.9544 6.43921 16.3588 6.04366 16.3739 5.55L16.3744 5.40422C16.3748 4.4246 16.3751 3.74327 16.2099 3.15982C15.7993 1.70948 14.6674 0.575924 13.2191 0.164782C12.6365 -0.0006148 11.9562 -0.000347746 10.9779 3.61759e-05L8.18121 7.32332e-05C6.50986 4.79934e-05 5.1627 2.76375e-05 4.10318 0.142681C3.00314 0.290787 2.07694 0.607636 1.34133 1.34429C0.605722 2.08095 0.289325 3.00848 0.14143 4.11008C-0.00101919 5.17112 -0.000999886 6.52019 -0.000975944 8.1939V13.8061C-0.000999886 15.4798 -0.00101919 16.8289 0.14143 17.8899C0.289325 18.9915 0.605722 19.919 1.34133 20.6557C2.07694 21.3924 3.00314 21.7092 4.10318 21.8573C5.16271 22 6.50987 22 8.18122 21.9999L10.9863 22C11.9567 22.0003 12.6317 22.0006 13.21 21.8378C14.6657 21.428 15.8032 20.2888 16.2125 18.8311C16.375 18.2519 16.3748 17.576 16.3744 16.6041L16.3744 16.4595L16.3744 16.4547C16.3744 15.9478 15.964 15.5368 15.4578 15.5368C14.9516 15.5368 14.5412 15.9478 14.5412 16.4547L14.5412 16.4595C14.5412 17.6336 14.5326 18.0319 14.4477 18.3342C14.2114 19.176 13.5545 19.8339 12.7139 20.0705C12.412 20.1555 12.0143 20.1641 10.8419 20.1641H8.24827C6.49403 20.1641 5.27056 20.1622 4.34744 20.0379C3.45069 19.9172 2.97581 19.6963 2.63757 19.3576C2.29934 19.0189 2.07881 18.5433 1.95825 17.6453C1.83414 16.7209 1.83219 15.4956 1.83219 13.7389V8.2611C1.83219 6.50436 1.83414 5.27914 1.95825 4.3547C2.07881 3.45666 2.29934 2.98111 2.63757 2.64239C2.97581 2.30367 3.45069 2.08283 4.34744 1.96209C5.27056 1.83781 6.49403 1.83586 8.24827 1.83586H10.8324Z" fill="#8C8C8C"/>
<path d="M18.9344 7.57401C18.5759 7.20994 17.9906 7.20581 17.6271 7.56478C17.2635 7.92376 17.2594 8.5099 17.6178 8.87397L18.8649 10.1405L10.7003 10.1407C10.1898 10.1407 9.7759 10.5551 9.7759 11.0664C9.77591 11.5777 10.1898 11.9922 10.7004 11.9922L18.82 11.992L17.6271 13.1697C17.2635 13.5286 17.2594 14.1147 17.6178 14.4788C17.9762 14.8429 18.5615 14.8471 18.9251 14.4882L21.7236 11.7255C21.8982 11.5531 21.9973 11.3184 21.999 11.0728C22.0007 10.8273 21.905 10.5911 21.7329 10.4163L18.9344 7.57401Z" fill="#8C8C8C"/>
</svg>
