<svg width="20" height="24" viewBox="0 0 20 24" fill="none" xmlns="http://www.w3.org/2000/svg">
<path fill-rule="evenodd" clip-rule="evenodd" d="M4.16152 2.89383C2.66064 3.65736 2.04562 4.55727 2.04562 5.30233C2.04562 6.04738 2.66064 6.94729 4.16152 7.71082C5.61318 8.44931 7.67621 8.93023 9.9999 8.93023C12.3236 8.93023 14.3866 8.44931 15.8383 7.71082C17.3392 6.94729 17.9542 6.04738 17.9542 5.30233C17.9542 4.55727 17.3392 3.65736 15.8383 2.89383C14.3866 2.15535 12.3236 1.67442 9.9999 1.67442C7.67621 1.67442 5.61318 2.15535 4.16152 2.89383ZM17.9542 8.32433C17.5408 8.65978 17.0719 8.95529 16.5743 9.20846C14.8492 10.086 12.5237 10.6047 9.9999 10.6047C7.47612 10.6047 5.15057 10.086 3.42553 9.20846C2.92787 8.95529 2.45896 8.65978 2.04562 8.32433V12C2.04562 12.7451 2.66064 13.645 4.16152 14.4085C5.61318 15.147 7.67621 15.6279 9.9999 15.6279C12.3236 15.6279 14.3866 15.147 15.8383 14.4085C17.3392 13.645 17.9542 12.7451 17.9542 12V8.32433ZM19.5999 5.30233C19.5999 3.58137 18.2501 2.24872 16.5743 1.39619C14.8492 0.518624 12.5237 0 9.9999 0C7.47612 0 5.15057 0.518624 3.42553 1.39619C1.74971 2.24872 0.399902 3.58137 0.399902 5.30233V18.6977C0.399902 20.4186 1.74971 21.7513 3.42553 22.6038C5.15057 23.4814 7.47612 24 9.9999 24C12.5237 24 14.8492 23.4814 16.5743 22.6038C18.2501 21.7513 19.5999 20.4186 19.5999 18.6977V5.30233ZM17.9542 15.022C17.5408 15.3575 17.0719 15.653 16.5743 15.9061C14.8492 16.7837 12.5237 17.3023 9.9999 17.3023C7.47612 17.3023 5.15057 16.7837 3.42553 15.9061C2.92787 15.653 2.45896 15.3575 2.04562 15.022V18.6977C2.04562 19.4427 2.66064 20.3426 4.16152 21.1062C5.61318 21.8447 7.67621 22.3256 9.9999 22.3256C12.3236 22.3256 14.3866 21.8447 15.8383 21.1062C17.3392 20.3426 17.9542 19.4427 17.9542 18.6977V15.022ZM5.61133 12C5.61133 12.6165 5.12012 13.1163 4.51418 13.1163C3.90825 13.1163 3.41704 12.6165 3.41704 12C3.41704 11.3835 3.90825 10.8837 4.51418 10.8837C5.12012 10.8837 5.61133 11.3835 5.61133 12ZM8.90275 14.2326C9.50868 14.2326 9.99989 13.7328 9.99989 13.1163C9.99989 12.4998 9.50868 12 8.90275 12C8.29681 12 7.8056 12.4998 7.8056 13.1163C7.8056 13.7328 8.29681 14.2326 8.90275 14.2326ZM5.61133 18.6977C5.61133 19.3142 5.12012 19.814 4.51418 19.814C3.90825 19.814 3.41704 19.3142 3.41704 18.6977C3.41704 18.0812 3.90825 17.5814 4.51418 17.5814C5.12012 17.5814 5.61133 18.0812 5.61133 18.6977ZM8.90275 20.9302C9.50868 20.9302 9.99989 20.4305 9.99989 19.814C9.99989 19.1974 9.50868 18.6977 8.90275 18.6977C8.29681 18.6977 7.8056 19.1974 7.8056 19.814C7.8056 20.4305 8.29681 20.9302 8.90275 20.9302Z" fill="white"/>
</svg>
